<svg width="40" height="40" viewBox="0 0 40 40" fill="none" xmlns="http://www.w3.org/2000/svg">
<g clip-path="url(#clip0)">
<path d="M11.7375 29.3742L6.73754 27.2492C6.10754 26.9792 5.37004 27.2767 5.10004 27.9117C4.83004 28.5467 5.12504 29.2817 5.76254 29.5492L10.7625 31.6742C10.92 31.7417 11.0875 31.7742 11.25 31.7742C11.735 31.7742 12.1975 31.4892 12.4 31.0117C12.67 30.3767 12.375 29.6417 11.7375 29.3742Z" fill="white"/>
<path d="M19.5 1L2 9L1 10V31C1 31.4 13 36.1667 19 38.5L39 31L38.5 8.5L19.5 1Z" fill="#1BA9E3"/>
<path d="M39.9825 8.69392C39.975 8.56642 39.9675 8.43892 39.92 8.31142C39.8925 8.23892 39.8425 8.18892 39.8025 8.12392C39.775 8.07892 39.755 8.03892 39.725 7.99892C39.585 7.81642 39.4125 7.67642 39.205 7.59642C39.1975 7.59392 39.195 7.58642 39.1875 7.58392L19.1875 0.0864158C18.885 -0.0310842 18.5525 -0.0235842 18.2575 0.103916L0.7575 7.60142C0.74 7.60892 0.7325 7.62892 0.715 7.63642C0.5425 7.71892 0.3975 7.84642 0.2775 8.00392C0.2425 8.04892 0.2125 8.08892 0.1825 8.13892C0.1575 8.18142 0.12 8.21142 0.1 8.25892C0.0325 8.41892 0 8.58392 0 8.74892V8.75142V31.2514C0 31.7514 0.2975 32.2039 0.7575 32.4014L18.2575 39.9014H18.26C18.4125 39.9664 18.5775 40.0014 18.75 40.0014C18.9 40.0014 19.0475 39.9739 19.19 39.9214L19.235 39.9039C19.235 39.9039 19.235 39.9039 19.2375 39.9039L39.19 32.4214C39.6775 32.2389 40 31.7714 40 31.2514V8.75142C40 8.72892 39.9825 8.71392 39.9825 8.69392ZM17.5 36.8539L2.5 30.4264V10.6488L17.5 17.0763V36.8539ZM18.78 14.9039L4.425 8.75142L18.78 2.60142L35.19 8.75142L31.2775 10.2189L24.2625 7.07642C23.9075 6.91642 23.5025 6.93392 23.165 7.11892L18.2625 9.20142C17.8 9.39642 17.5 9.85642 17.5 10.3589C17.5 10.8639 17.805 11.3214 18.275 11.5139L22.8225 13.3914L18.78 14.9039ZM27.5 14.3039L30 13.3664V19.4589L27.5 20.3964V14.3039ZM26.255 12.1014L21.98 10.3389L23.75 9.58642L27.95 11.4664L26.255 12.1014ZM37.5 30.3839L20 36.9464V17.1164L25 15.2414V22.2014C25 22.6114 25.2025 22.9939 25.5375 23.2289C25.75 23.3764 25.9975 23.4514 26.25 23.4514C26.3975 23.4514 26.5475 23.4239 26.69 23.3714L29.19 22.4339L31.69 21.4964C32.1775 21.3114 32.5 20.8464 32.5 20.3264V12.4289L37.5 10.5539V30.3839Z" fill="white"/>
</g>
<defs>
<clipPath id="clip0">
<rect width="40" height="40" fill="white"/>
</clipPath>
</defs>
</svg>
