<svg width="40" height="40" viewBox="0 0 40 40" fill="none" xmlns="http://www.w3.org/2000/svg">
<g clip-path="url(#clip0)">
<path d="M27 1H12L8 0.5L4.5 4V37L6.5 39H32.5L35 36.5V9L27 1Z" fill="#1BA9E3"/>
<path d="M35.8875 7.86252L28.3875 0.36252C28.1516 0.128536 27.8323 -0.00185505 27.5 1.99452e-05H7.5C5.42891 1.99452e-05 3.75 1.67893 3.75 3.75002V36.25C3.75 38.3211 5.42891 40 7.5 40H32.5C34.5711 40 36.25 38.3211 36.25 36.25V8.75002C36.252 8.41775 36.1215 8.09846 35.8875 7.86252ZM33.75 36.25C33.75 36.9404 33.1904 37.5 32.5 37.5H7.5C6.80961 37.5 6.25 36.9404 6.25 36.25V3.75002C6.25 3.05963 6.80961 2.50002 7.5 2.50002H26.25V7.50002C26.25 8.88072 27.3693 10 28.75 10H33.75V36.25Z" fill="white"/>
<path d="M31.25 30H28.75V32.5H31.25V30Z" fill="white"/>
<path d="M31.25 17.5H8.75V20H31.25V17.5Z" fill="white"/>
<path d="M31.25 23.75H8.75V26.25H31.25V23.75Z" fill="white"/>
<path d="M26.25 30H8.75V32.5H26.25V30Z" fill="white"/>
</g>
<defs>
<clipPath id="clip0">
<rect width="40" height="40" fill="white"/>
</clipPath>
</defs>
</svg>
